<svg id="Layer_1" data-name="Layer 1" xmlns="http://www.w3.org/2000/svg" viewBox="0 0 42.23 41.65">
  <defs>
    <style>
      .cls-1 {
        fill: #003548;
      }
    </style>
  </defs>
  <polygon class="cls-1" points="2.06 2.32 2.06 38.1 5.16 38.1 5.16 7.94 37.37 7.94 37.37 38.1 40.48 38.1 40.48 2.32 2.06 2.32"/>
  <path class="cls-1" d="M34.7,19.24l-3.11-.64v.26l-1.5-4a2.15,2.15,0,0,0-1.91-1.33H14.35a2.22,2.22,0,0,0-1.94,1.29L10.64,19V18.6l-3.1.64V21H9.82l0,0a.75.75,0,0,0,0,.59l-2.1,3.6.1,8.22h0V38.1h4.28V33.47H30.13V38.1h4.28V33.47h0l.21-8.22-2.2-3.61a.75.75,0,0,0,0-.55l0-.07h2.3ZM13.84,15.42a.66.66,0,0,1,.51-.34H28.18a.59.59,0,0,1,.46.33L30.75,21H11.5Zm-2.72,14a1.83,1.83,0,1,1,1.82-1.82A1.82,1.82,0,0,1,11.12,29.41Zm16.05-.92h-12a.45.45,0,1,1,0-.89h12a.45.45,0,0,1,0,.89Zm.48-1.84H14.59a.45.45,0,0,1,0-.89H27.65a.45.45,0,0,1,0,.89Zm3.24,2.76a1.83,1.83,0,1,1,1.82-1.82A1.83,1.83,0,0,1,30.89,29.41Z"/>
</svg>
