<svg xmlns="http://www.w3.org/2000/svg" xmlns:xlink="http://www.w3.org/1999/xlink" id="Layer_1" x="0px" y="0px" viewBox="0 0 70 70" style="enable-background:new 0 0 70 70;" xml:space="preserve">
<style type="text/css">
	.st0{fill:#003548;}
</style>
<g>
	<g>
		<path class="st0" d="M53.2,15.9H16.6c-1.1,0-2,0.9-2,2v40.9c0,1.1,0.9,2,2,2h36.6c1.1,0,2-0.9,2-2V17.9    C55.2,16.8,54.3,15.9,53.2,15.9z M18.6,19.9h14.3v36.9H18.6V19.9z M51.2,56.8H36.9V19.9h14.3V56.8z"></path>
		<path class="st0" d="M25.8,12.1H44c1.1,0,2-0.9,2-2s-0.9-2-2-2H25.8c-1.1,0-2,0.9-2,2S24.7,12.1,25.8,12.1z"></path>
	</g>
	<path class="st0" d="M59.4,38L59.4,38l3.6,0c0.3,0,0.6-0.2,0.7-0.4c0.1-0.3,0.1-0.6,0-0.8l-1.8-3.1c-0.2-0.3-0.4-0.4-0.7-0.4   s-0.6,0.2-0.7,0.4l-1.8,3.1c-0.2,0.3-0.2,0.6,0,0.8C58.8,37.9,59.1,38,59.4,38z"></path>
	<path class="st0" d="M63.7,41.7c-0.1-0.3-0.4-0.4-0.7-0.4l-3.6,0c-0.3,0-0.6,0.2-0.7,0.4c-0.1,0.3-0.1,0.6,0,0.8l1.8,3   c0.2,0.3,0.4,0.4,0.7,0.4c0.3,0,0.6-0.2,0.7-0.4l1.8-3.1C63.8,42.3,63.8,42,63.7,41.7z"></path>
</g>
</svg>