<svg id="Layer_1" data-name="Layer 1" xmlns="http://www.w3.org/2000/svg" xmlns:xlink="http://www.w3.org/1999/xlink" viewBox="0 0 514.43 275.93">
  <defs>
    <style>
      .cls-1, .cls-2, .cls-3 {
        fill: #fff;
      }

      .cls-2 {
        stroke: #fff;
        stroke-miterlimit: 10;
        stroke-width: 1.13px;
      }

      .cls-3 {
        fill-rule: evenodd;
      }

      .cls-4 {
        clip-path: url(#clip-path);
      }
    </style>
    <clipPath id="clip-path">
      <path class="cls-1" d="M11,54.35c15.31,6.28,53,28.27,62.48,41.59-6.19-13.38-6-18.82,3-27.39,19.14-18.11,59.3-33.19,88-21.35,23.78,9.81,42.72,37.66,57.94,59.5,3,4.37,5.72,7.77,8.64,11.73,2.8,3.79,7.09,8.09,8.76,11.55-5.19-.69-15.19-4.79-21.46-6.63-31.14-9.12-71.18-12-100,6.62-20.82,13.5-27.54,40.8-14.52,63.51,26.22,45.74,109.92,62.49,179.11,51,67.75-11.22,126.65-52.11,164.16-87.76,21.94-22.45,37.4-47.37,55.43-73-16.51,22.64-52.47,67.45-76.45,82.71-40.94,31.5-122.74,69.74-190.55,65.68-36.13-2.16-70.28-20.62-53.4-60.51,12.14-28.68,54.8-25.22,84.13-6.86,21,13.15,42.69,22.22,80.62,14.38,32.18-6.65,70.83-31.75,92.57-48.31-3.51,1.33-8,4.74-11.75,7.08-32.28,20.16-72.7,33.37-108.67,17.61-72.63-31.83-99.39-151.87-181-130.66-31.57,8.2-41.6,29-93.35,31.85C31.51,57.4,22.54,55.28,11,54.35Z"/>
    </clipPath>
  </defs>
  <g>
    <path class="cls-2" d="M11,54.35c15.31,6.28,53,28.27,62.48,41.59,12.4,18.51,18.33,35.69,21,56.83l3,20.38a46.56,46.56,0,0,0,.81,5.47v.07h0a49.94,49.94,0,0,0,5.65,14.79c26.22,45.74,109.92,62.49,179.11,51,67.75-11.22,126.65-52.11,164.16-87.76,14.88-15.23,26.78-31.59,38.53-48.56l.47-.69,1.82-2.64L502.6,83.7c-20,17.92-40.34,35.24-63.08,47.09a37.71,37.71,0,0,0-6.69,3.75l-27.75,15.54c-27.41,12.4-58,17.64-86,5.4-72.63-31.83-99.4-151.87-181-130.66-31.57,8.2-41.6,29-93.35,31.85C31.51,57.4,22.54,55.28,11,54.35Z"/>
    <path class="cls-1" d="M22.57,59.86C40.36,69.14,65.93,85.3,73.48,95.94c.66,1,1.29,2,1.91,2.93.49.59,1,1.16,1.34,1.72-6.19-13.38-6-18.82,3-27.39,19.15-18.11,59.3-33.19,88-21.35,23.77,9.81,42.71,37.66,57.94,59.5,3.05,4.37,5.72,7.77,8.64,11.73,2.79,3.79,7.08,8.09,8.76,11.55-5.2-.69-15.19-4.79-21.47-6.63-31.14-9.12-71.17-12.06-100,6.62-20.82,13.5-27.54,40.81-14.53,63.51.53.92,1.09,1.82,1.66,2.72C139.41,241,217.67,255.33,283,244.51c67.75-11.22,126.65-52.11,164.16-87.76h0a127.83,127.83,0,0,1-17.78,14.32c-41,31.5-122.75,69.74-190.55,65.68-36.13-2.16-70.29-20.62-53.41-60.51,12.15-28.68,54.81-25.22,84.14-6.86,21,13.14,42.68,22.22,80.62,14.38C382.38,177.1,421,152,442.78,135.44c-3.51,1.33-1.09-6.29-4.84-3.95-32.27,20.16-79.61,44.4-115.59,28.63C249.72,128.3,223,8.26,141.37,29.47c-31.56,8.2-41.59,29-93.34,31.85-9.94.55-17.46-.5-25.46-1.46Zm98.54-.92c-20.35,7.86-9.11,35.3,10,29,17.39-5.71,9.19-36.45-10-29Z"/>
    <path class="cls-1" d="M119.25,55.91c-20.35,7.87-9.11,35.31,10,29.05,17.39-5.71,9.19-36.45-10-29Z"/>
    <path class="cls-1" d="M11,54.35c15.31,6.28,53,28.27,62.48,41.59-6.19-13.38-6-18.82,3-27.39,19.14-18.11,59.3-33.19,88-21.35,23.78,9.81,42.72,37.66,57.94,59.5,3,4.37,5.72,7.77,8.64,11.73,2.8,3.79,7.09,8.09,8.76,11.55-5.19-.69-15.19-4.79-21.46-6.63-31.14-9.12-71.18-12-100,6.62-20.82,13.5-27.54,40.8-14.52,63.51,26.22,45.74,109.92,62.49,179.11,51,67.75-11.22,126.65-52.11,164.16-87.76,21.94-22.45,37.4-47.37,55.43-73-16.51,22.64-52.47,67.45-76.45,82.71-40.94,31.5-122.74,69.74-190.55,65.68-36.13-2.16-70.28-20.62-53.4-60.51,12.14-28.68,54.8-25.22,84.13-6.86,21,13.15,42.69,22.22,80.62,14.38,32.18-6.65,70.83-31.75,92.57-48.31-3.51,1.33-8,4.74-11.75,7.08-32.28,20.16-72.7,33.37-108.67,17.61-72.63-31.83-99.39-151.87-181-130.66-31.57,8.2-41.6,29-93.35,31.85C31.51,57.4,22.54,55.28,11,54.35Z"/>
    <path class="cls-3" d="M118.8,65.2A5.92,5.92,0,1,1,114,72.08a5.92,5.92,0,0,1,4.78-6.88Z"/>
    <g>
      <path class="cls-1" d="M11,54.35c15.31,6.28,53,28.27,62.48,41.59-6.19-13.38-6-18.82,3-27.39,19.14-18.11,59.3-33.19,88-21.35,23.78,9.81,42.72,37.66,57.94,59.5,3,4.37,5.72,7.77,8.64,11.73,2.8,3.79,7.09,8.09,8.76,11.55-5.19-.69-15.19-4.79-21.46-6.63-31.14-9.12-71.18-12-100,6.62-20.82,13.5-27.54,40.8-14.52,63.51,26.22,45.74,109.92,62.49,179.11,51,67.75-11.22,126.65-52.11,164.16-87.76,21.94-22.45,37.4-47.37,55.43-73-16.51,22.64-52.47,67.45-76.45,82.71-40.94,31.5-122.74,69.74-190.55,65.68-36.13-2.16-70.28-20.62-53.4-60.51,12.14-28.68,54.8-25.22,84.13-6.86,21,13.15,42.69,22.22,80.62,14.38,32.18-6.65,70.83-31.75,92.57-48.31-3.51,1.33-8,4.74-11.75,7.08-32.28,20.16-72.7,33.37-108.67,17.61-72.63-31.83-99.39-151.87-181-130.66-31.57,8.2-41.6,29-93.35,31.85C31.51,57.4,22.54,55.28,11,54.35Z"/>
      <g class="cls-4">
        <path class="cls-1" d="M74.88,162.68c1-46.65,33.66-90.41,68.58-85.64C243,90.61,271.23,171.38,271.23,171.38l21.93,73.81S138.59,290.8,132.32,287.32,74.88,162.68,74.88,162.68Z"/>
      </g>
    </g>
  </g>
</svg>
